<svg width="28" height="27" viewBox="0 0 28 27" fill="none" xmlns="http://www.w3.org/2000/svg">
<path d="M14 0.666748C12.2491 0.666748 10.5152 1.01162 8.89757 1.68169C7.2799 2.35175 5.81004 3.33388 4.57193 4.57199C2.07144 7.07248 0.666687 10.4639 0.666687 14.0001C0.666687 19.8934 4.49335 24.8934 9.78669 26.6667C10.4534 26.7734 10.6667 26.3601 10.6667 26.0001V23.7467C6.97335 24.5467 6.18669 21.9601 6.18669 21.9601C5.57335 20.4134 4.70669 20.0001 4.70669 20.0001C3.49335 19.1734 4.80002 19.2001 4.80002 19.2001C6.13335 19.2934 6.84002 20.5734 6.84002 20.5734C8.00002 22.6001 9.96002 22.0001 10.72 21.6801C10.84 20.8134 11.1867 20.2267 11.56 19.8934C8.60002 19.5601 5.49335 18.4134 5.49335 13.3334C5.49335 11.8534 6.00002 10.6667 6.86669 9.72008C6.73335 9.38675 6.26669 8.00008 7.00002 6.20008C7.00002 6.20008 8.12002 5.84008 10.6667 7.56008C11.72 7.26675 12.8667 7.12008 14 7.12008C15.1334 7.12008 16.28 7.26675 17.3334 7.56008C19.88 5.84008 21 6.20008 21 6.20008C21.7334 8.00008 21.2667 9.38675 21.1334 9.72008C22 10.6667 22.5067 11.8534 22.5067 13.3334C22.5067 18.4267 19.3867 19.5467 16.4134 19.8801C16.8934 20.2934 17.3334 21.1067 17.3334 22.3467V26.0001C17.3334 26.3601 17.5467 26.7867 18.2267 26.6667C23.52 24.8801 27.3334 19.8934 27.3334 14.0001C27.3334 12.2491 26.9885 10.5153 26.3184 8.89764C25.6484 7.27996 24.6662 5.81011 23.4281 4.57199C22.19 3.33388 20.7201 2.35175 19.1025 1.68169C17.4848 1.01162 15.751 0.666748 14 0.666748Z" fill="#A7A7A7"/>
</svg>
