<svg width="512" height="512" viewBox="0 0 512 512" fill="none" xmlns="http://www.w3.org/2000/svg">
<rect width="512" height="512" rx="50" fill="white"/>
<path d="M348 205.132V336.423C348 343.044 342.027 346.203 334.786 351.137C328.972 355.107 321.572 350.186 321.572 343.691V215.406C321.572 212.73 320.594 210.18 317.423 208.62C314.252 207.06 215.174 157.06 215.174 157.06C213.575 156.489 206.598 152.265 197.295 156.857C188.455 161.22 183.645 165.964 182.416 168.196L290.506 225.046C293.374 226.492 295.144 228.724 295.144 231.591V368.603C295.111 370.148 294.64 371.656 293.781 372.963C292.922 374.271 291.707 375.329 290.268 376.023C288.9 376.671 287.394 377.005 285.868 376.999C284.074 377.02 282.308 376.563 280.768 375.68C277.927 374.019 178.042 315.229 171.449 311.411C168.277 309.584 164.564 305.842 164.485 303.065L163.005 172.598C163.005 170.086 162.701 165.66 166.824 159.508C176.034 145.758 208.17 130.119 224.437 138.224L343.349 196C346.216 197.42 348 200.261 348 205.132Z" fill="#343434"/>
<path d="M254 152.5C243.771 140.31 230.612 131.145 214.759 129.758C198.907 128.371 183.153 133.339 170.963 143.567C158.773 153.796 151.145 168.448 149.758 184.301C148.371 200.153 153.339 215.907 163.567 228.097L209.53 189.53L254 152.5Z" fill="#FFD12D"/>
</svg>
